<svg width="156" height="56" viewBox="0 0 156 56" fill="none" xmlns="http://www.w3.org/2000/svg">
<path d="M27.0736 15.4526C25.8557 10.2769 21.9739 7.65091 16.2273 7.65091C9.18673 7.65091 4.27736 11.5327 4.27736 17.051C4.27736 26.9459 17.1787 23.6349 17.1787 28.1637C17.1787 29.9143 15.5423 31.3224 12.6499 31.3224C9.90981 31.3224 8.00696 30.0285 7.81667 26.9839L0.776108 28.5062C1.68948 34.2528 5.98993 37.1832 12.3835 37.1832C19.7666 37.1832 24.3334 33.2633 24.3334 27.6689C24.3334 17.8883 11.356 20.8567 11.356 16.4802C11.356 14.8056 12.9163 13.5117 15.6564 13.5117C18.5488 13.5117 19.9569 14.9579 20.3755 17.2413L27.0736 15.4526ZM27.2255 36.6885H47.5099L48.5755 30.5993H35.1414L36.1309 25.0049H44.884L45.9496 18.9158H37.1965L38.0337 14.2348H51.0873L52.1529 8.14565H32.249L27.2255 36.6885ZM52.089 36.6885H58.4445L61.8316 17.3935L69.8997 36.6885H77.1686L82.1921 8.14565H75.8366L72.4495 27.3264L64.3814 8.14565H57.1125L52.089 36.6885ZM83.2705 36.6885H90.1208L95.1443 8.14565H88.294L83.2705 36.6885ZM114.053 7.65091C102.902 7.65091 97.0793 16.6324 97.0793 24.7005C97.0793 32.0455 101.798 37.1832 109.638 37.1832C120.789 37.1832 126.612 28.2017 126.612 20.1336C126.612 12.7886 121.893 7.65091 114.053 7.65091ZM113.254 13.9303C117.211 13.9303 119.571 16.3279 119.571 20.7426C119.571 26.1467 116.032 30.9038 110.437 30.9038C106.479 30.9038 104.12 28.5062 104.12 24.0916C104.12 18.6875 107.659 13.9303 113.254 13.9303ZM128.538 36.6885H135.35L137.062 27.022H141.135L145.359 36.6885H152.704L147.756 25.69C152.095 24.1677 154.34 20.8948 154.34 16.8988C154.34 11.685 150.801 8.14565 145.169 8.14565H133.561L128.538 36.6885ZM144.141 14.2348C146.044 14.2348 147.3 15.3384 147.3 17.2794C147.3 19.5628 145.739 20.9328 143.075 20.9328H138.128L139.308 14.2348H144.141Z" fill="white"/>
<path d="M2.91062 55.2773H5.41288C7.98173 55.2773 9.73236 53.4791 9.73236 51.1672C9.73236 49.4356 8.5621 48.1416 6.54507 48.1416H4.16651L2.91062 55.2773ZM6.3643 49.7115C7.40136 49.7115 7.97222 50.2348 7.97222 51.2718C7.97222 52.7085 6.97322 53.7075 5.51753 53.7075H4.89911L5.60316 49.7115H6.3643ZM32.0488 55.2773H37.1199L37.3863 53.7551H34.0278L34.2752 52.3565H36.4635L36.7299 50.8342H34.5416L34.7509 49.6639H38.0143L38.2807 48.1416H33.3047L32.0488 55.2773ZM66.2686 49.9684C65.9641 48.6744 64.9936 48.018 63.557 48.018C61.7968 48.018 60.5695 48.9884 60.5695 50.368C60.5695 52.8417 63.7948 52.0139 63.7948 53.1461C63.7948 53.5838 63.3857 53.9358 62.6626 53.9358C61.9776 53.9358 61.5019 53.6123 61.4543 52.8512L59.6942 53.2318C59.9225 54.6684 60.9976 55.401 62.596 55.401C64.4418 55.401 65.5835 54.4211 65.5835 53.0225C65.5835 50.5773 62.3392 51.3194 62.3392 50.2253C62.3392 49.8066 62.7292 49.4832 63.4143 49.4832C64.1374 49.4832 64.4894 49.8447 64.594 50.4155L66.2686 49.9684ZM88.1418 55.2773H89.8544L91.1102 48.1416H89.3977L88.1418 55.2773ZM116.674 55.401C118.957 55.401 120.203 53.9739 120.546 52.052L120.679 51.2909H116.769L116.512 52.7656H118.653C118.396 53.4125 117.853 53.8597 116.816 53.8597C115.817 53.8597 115.18 53.2793 115.18 52.0996C115.18 50.739 116.093 49.5878 117.473 49.5878C118.215 49.5878 118.748 50.0255 118.833 50.6724L120.498 50.2062C120.203 48.8933 119.233 48.018 117.596 48.018C114.942 48.018 113.42 50.2823 113.42 52.3089C113.42 54.1832 114.638 55.401 116.674 55.401ZM143.045 55.2773H144.634L145.481 50.4536L147.498 55.2773H149.315L150.571 48.1416H148.982L148.136 52.9368L146.119 48.1416H144.301L143.045 55.2773Z" fill="white"/>
</svg>
